# MagicaVoxel @ Ephtracy

# group
o 

# material
mtllib MapFinalV1-19.mtl
usemtl palette

# normals
vn -1 0 0
vn 1 0 0
vn 0 0 1
vn 0 0 -1
vn 0 -1 0
vn 0 1 0

# texcoords
vt 0.0136719 0.5
vt 0.0253906 0.5
vt 0.982422 0.5

# verts
v -32.6 6.6 -10.2
v -32.6 6.6 -10.4
v -32.6 12.9 -10.4
v -32.6 12.9 -10.5
v -32.6 13.2 -10.2
v -32.6 13.2 -10.3
v -32.6 13.3 -10.5
v -32.6 13.3 -10.6
v -32.6 13.4 -10.3
v -32.6 13.4 -10.4
v -32.6 13.4 -10.6
v -32.6 13.4 -10.7
v -32.6 13.5 -10.4
v -32.6 13.5 -10.5
v -32.6 13.5 -10.7
v -32.6 13.5 -10.8
v -32.6 13.6 -10.5
v -32.6 13.6 -10.6
v -32.6 13.6 -10.8
v -32.6 13.6 -11
v -32.6 13.6 -11.3
v -32.6 13.6 -11.5
v -32.6 13.6 -12
v -32.6 13.7 -10.6
v -32.6 13.7 -10.7
v -32.6 13.7 -11
v -32.6 13.7 -11.3
v -32.6 13.7 -11.5
v -32.6 13.7 -12
v -32.6 13.8 -10.7
v -32.6 13.8 -12
v -32.5 13.6 -11
v -32.5 13.6 -11.3
v -32.5 13.6 -12
v -32.5 13.6 -12.1
v -32.5 13.7 -11
v -32.5 13.7 -11.3
v -32.5 13.7 -12
v -32.5 13.7 -12.1
v -32.5 13.8 -12
v -32.5 13.8 -12.1
v -32.4 9.2 -10.3
v -32.4 9.2 -10.4
v -32.4 10.6 -10.3
v -32.4 10.6 -10.4
v -32.5 9.2 -10.3
v -32.5 9.2 -10.4
v -32.5 10.6 -10.3
v -32.5 10.6 -10.4
v -32.4 13.6 -11
v -32.4 13.6 -11.3
v -32.4 13.6 -12
v -32.4 13.6 -12.1
v -32.4 13.7 -11
v -32.4 13.7 -11.3
v -32.4 13.7 -12
v -32.4 13.7 -12.1
v -32.4 13.8 -12
v -32.4 13.8 -12.1
v -32.3 6.6 -10.2
v -32.3 6.6 -10.4
v -32.3 12.9 -10.4
v -32.3 12.9 -10.5
v -32.3 13.2 -10.2
v -32.3 13.2 -10.3
v -32.3 13.3 -10.5
v -32.3 13.3 -10.6
v -32.3 13.4 -10.3
v -32.3 13.4 -10.4
v -32.3 13.4 -10.6
v -32.3 13.4 -10.7
v -32.3 13.5 -10.4
v -32.3 13.5 -10.5
v -32.3 13.5 -10.7
v -32.3 13.5 -10.8
v -32.3 13.6 -10.5
v -32.3 13.6 -10.6
v -32.3 13.6 -10.8
v -32.3 13.6 -11
v -32.3 13.6 -11.3
v -32.3 13.6 -11.5
v -32.3 13.6 -12
v -32.3 13.7 -10.6
v -32.3 13.7 -10.7
v -32.3 13.7 -11
v -32.3 13.7 -11.3
v -32.3 13.7 -11.5
v -32.3 13.7 -12
v -32.3 13.8 -10.7
v -32.3 13.8 -12
v -32.6 6.6 -10.2
v -32.6 13.2 -10.2
v -32.5 9.2 -10.2
v -32.5 10.6 -10.2
v -32.4 9.2 -10.2
v -32.4 10.6 -10.2
v -32.3 6.6 -10.2
v -32.3 13.2 -10.2
v -32.6 13.2 -10.3
v -32.6 13.4 -10.3
v -32.3 13.2 -10.3
v -32.3 13.4 -10.3
v -32.6 13.4 -10.4
v -32.6 13.5 -10.4
v -32.3 13.4 -10.4
v -32.3 13.5 -10.4
v -32.6 13.5 -10.5
v -32.6 13.6 -10.5
v -32.3 13.5 -10.5
v -32.3 13.6 -10.5
v -32.6 13.6 -10.6
v -32.6 13.7 -10.6
v -32.3 13.6 -10.6
v -32.3 13.7 -10.6
v -32.6 13.7 -10.7
v -32.6 13.8 -10.7
v -32.3 13.7 -10.7
v -32.3 13.8 -10.7
v -32.6 13.6 -11.3
v -32.6 13.7 -11.3
v -32.5 13.6 -11.3
v -32.5 13.7 -11.3
v -32.4 13.6 -11.3
v -32.4 13.7 -11.3
v -32.3 13.6 -11.3
v -32.3 13.7 -11.3
v -32.5 9.2 -10.3
v -32.5 10.6 -10.3
v -32.4 9.2 -10.3
v -32.4 10.6 -10.3
v -32.6 6.6 -10.4
v -32.6 12.9 -10.4
v -32.5 9.2 -10.4
v -32.5 10.6 -10.4
v -32.4 9.2 -10.4
v -32.4 10.6 -10.4
v -32.3 6.6 -10.4
v -32.3 12.9 -10.4
v -32.6 12.9 -10.5
v -32.6 13.3 -10.5
v -32.3 12.9 -10.5
v -32.3 13.3 -10.5
v -32.6 13.3 -10.6
v -32.6 13.4 -10.6
v -32.3 13.3 -10.6
v -32.3 13.4 -10.6
v -32.6 13.4 -10.7
v -32.6 13.5 -10.7
v -32.3 13.4 -10.7
v -32.3 13.5 -10.7
v -32.6 13.5 -10.8
v -32.6 13.6 -10.8
v -32.3 13.5 -10.8
v -32.3 13.6 -10.8
v -32.6 13.6 -11
v -32.6 13.7 -11
v -32.5 13.6 -11
v -32.5 13.7 -11
v -32.4 13.6 -11
v -32.4 13.7 -11
v -32.3 13.6 -11
v -32.3 13.7 -11
v -32.6 13.6 -12
v -32.6 13.7 -12
v -32.6 13.8 -12
v -32.5 13.6 -12
v -32.5 13.7 -12
v -32.5 13.8 -12
v -32.4 13.6 -12
v -32.4 13.7 -12
v -32.4 13.8 -12
v -32.3 13.6 -12
v -32.3 13.7 -12
v -32.3 13.8 -12
v -32.5 13.6 -12.1
v -32.5 13.7 -12.1
v -32.5 13.8 -12.1
v -32.4 13.6 -12.1
v -32.4 13.7 -12.1
v -32.4 13.8 -12.1
v -32.6 6.6 -10.2
v -32.3 6.6 -10.2
v -32.6 6.6 -10.4
v -32.3 6.6 -10.4
v -32.5 10.6 -10.3
v -32.4 10.6 -10.3
v -32.5 10.6 -10.4
v -32.4 10.6 -10.4
v -32.6 12.9 -10.4
v -32.3 12.9 -10.4
v -32.6 12.9 -10.5
v -32.3 12.9 -10.5
v -32.6 13.3 -10.5
v -32.3 13.3 -10.5
v -32.6 13.3 -10.6
v -32.3 13.3 -10.6
v -32.6 13.4 -10.6
v -32.3 13.4 -10.6
v -32.6 13.4 -10.7
v -32.3 13.4 -10.7
v -32.6 13.5 -10.7
v -32.3 13.5 -10.7
v -32.6 13.5 -10.8
v -32.3 13.5 -10.8
v -32.6 13.6 -10.8
v -32.3 13.6 -10.8
v -32.6 13.6 -11
v -32.5 13.6 -11
v -32.4 13.6 -11
v -32.3 13.6 -11
v -32.6 13.6 -11.3
v -32.5 13.6 -11.3
v -32.4 13.6 -11.3
v -32.3 13.6 -11.3
v -32.6 13.6 -11.5
v -32.3 13.6 -11.5
v -32.6 13.6 -12
v -32.5 13.6 -12
v -32.4 13.6 -12
v -32.3 13.6 -12
v -32.5 13.6 -12.1
v -32.4 13.6 -12.1
v -32.6 13.7 -11
v -32.5 13.7 -11
v -32.4 13.7 -11
v -32.3 13.7 -11
v -32.6 13.7 -11.3
v -32.5 13.7 -11.3
v -32.4 13.7 -11.3
v -32.3 13.7 -11.3
v -32.5 9.2 -10.3
v -32.4 9.2 -10.3
v -32.5 9.2 -10.4
v -32.4 9.2 -10.4
v -32.6 13.2 -10.2
v -32.3 13.2 -10.2
v -32.6 13.2 -10.3
v -32.3 13.2 -10.3
v -32.6 13.4 -10.3
v -32.3 13.4 -10.3
v -32.6 13.4 -10.4
v -32.3 13.4 -10.4
v -32.6 13.5 -10.4
v -32.3 13.5 -10.4
v -32.6 13.5 -10.5
v -32.3 13.5 -10.5
v -32.6 13.6 -10.5
v -32.3 13.6 -10.5
v -32.6 13.6 -10.6
v -32.3 13.6 -10.6
v -32.6 13.7 -10.6
v -32.3 13.7 -10.6
v -32.6 13.7 -10.7
v -32.3 13.7 -10.7
v -32.6 13.8 -10.7
v -32.3 13.8 -10.7
v -32.6 13.8 -12
v -32.5 13.8 -12
v -32.4 13.8 -12
v -32.3 13.8 -12
v -32.5 13.8 -12.1
v -32.4 13.8 -12.1

# faces
f 3/3/1 2/3/1 1/3/1
f 5/3/1 3/3/1 1/3/1
f 5/3/1 4/3/1 3/3/1
f 6/3/1 4/3/1 5/3/1
f 7/3/1 4/3/1 6/3/1
f 9/3/1 7/3/1 6/3/1
f 9/3/1 8/3/1 7/3/1
f 10/3/1 8/3/1 9/3/1
f 11/3/1 8/3/1 10/3/1
f 13/3/1 12/3/1 11/3/1
f 13/3/1 11/3/1 10/3/1
f 14/3/1 12/3/1 13/3/1
f 15/3/1 12/3/1 14/3/1
f 17/3/1 16/3/1 15/3/1
f 17/3/1 15/3/1 14/3/1
f 18/3/1 16/3/1 17/3/1
f 19/3/1 16/3/1 18/3/1
f 24/3/1 19/3/1 18/3/1
f 24/3/1 20/3/1 19/3/1
f 25/3/1 20/3/1 24/3/1
f 26/3/1 20/3/1 25/3/1
f 27/3/1 22/3/1 21/3/1
f 28/2/1 23/2/1 22/2/1
f 28/3/1 22/3/1 27/3/1
f 29/2/1 23/2/1 28/2/1
f 30/3/1 27/3/1 26/3/1
f 30/3/1 26/3/1 25/3/1
f 30/3/1 29/3/1 28/3/1
f 30/3/1 28/3/1 27/3/1
f 31/3/1 29/3/1 30/3/1
f 36/3/1 33/3/1 32/3/1
f 37/3/1 33/3/1 36/3/1
f 38/2/1 35/2/1 34/2/1
f 39/2/1 35/2/1 38/2/1
f 40/3/1 39/3/1 38/3/1
f 41/3/1 39/3/1 40/3/1
f 44/3/1 43/3/1 42/3/1
f 45/3/1 43/3/1 44/3/1
f 46/3/2 47/3/2 48/3/2
f 48/3/2 47/3/2 49/3/2
f 50/3/2 51/3/2 54/3/2
f 54/3/2 51/3/2 55/3/2
f 52/2/2 53/2/2 56/2/2
f 56/2/2 53/2/2 57/2/2
f 56/3/2 57/3/2 58/3/2
f 58/3/2 57/3/2 59/3/2
f 60/3/2 61/3/2 62/3/2
f 60/3/2 62/3/2 64/3/2
f 62/3/2 63/3/2 64/3/2
f 64/3/2 63/3/2 65/3/2
f 65/3/2 63/3/2 66/3/2
f 65/3/2 66/3/2 68/3/2
f 66/3/2 67/3/2 68/3/2
f 68/3/2 67/3/2 69/3/2
f 69/3/2 67/3/2 70/3/2
f 70/3/2 71/3/2 72/3/2
f 69/3/2 70/3/2 72/3/2
f 72/3/2 71/3/2 73/3/2
f 73/3/2 71/3/2 74/3/2
f 74/3/2 75/3/2 76/3/2
f 73/3/2 74/3/2 76/3/2
f 76/3/2 75/3/2 77/3/2
f 77/3/2 75/3/2 78/3/2
f 77/3/2 78/3/2 83/3/2
f 78/3/2 79/3/2 83/3/2
f 83/3/2 79/3/2 84/3/2
f 84/3/2 79/3/2 85/3/2
f 80/3/2 81/3/2 86/3/2
f 81/2/2 82/2/2 87/2/2
f 86/3/2 81/3/2 87/3/2
f 87/2/2 82/2/2 88/2/2
f 85/3/2 86/3/2 89/3/2
f 84/3/2 85/3/2 89/3/2
f 87/3/2 88/3/2 89/3/2
f 86/3/2 87/3/2 89/3/2
f 89/3/2 88/3/2 90/3/2
f 93/3/3 92/3/3 91/3/3
f 94/3/3 92/3/3 93/3/3
f 95/3/3 93/3/3 91/3/3
f 95/1/3 94/1/3 93/1/3
f 96/3/3 92/3/3 94/3/3
f 96/1/3 94/1/3 95/1/3
f 97/3/3 95/3/3 91/3/3
f 97/3/3 96/3/3 95/3/3
f 98/3/3 92/3/3 96/3/3
f 98/3/3 96/3/3 97/3/3
f 101/3/3 100/3/3 99/3/3
f 102/3/3 100/3/3 101/3/3
f 105/3/3 104/3/3 103/3/3
f 106/3/3 104/3/3 105/3/3
f 109/3/3 108/3/3 107/3/3
f 110/3/3 108/3/3 109/3/3
f 113/3/3 112/3/3 111/3/3
f 114/3/3 112/3/3 113/3/3
f 117/3/3 116/3/3 115/3/3
f 118/3/3 116/3/3 117/3/3
f 121/3/3 120/3/3 119/3/3
f 122/3/3 120/3/3 121/3/3
f 125/3/3 124/3/3 123/3/3
f 126/3/3 124/3/3 125/3/3
f 127/1/4 128/1/4 129/1/4
f 129/1/4 128/1/4 130/1/4
f 131/3/4 132/3/4 133/3/4
f 133/3/4 132/3/4 134/3/4
f 131/3/4 133/3/4 135/3/4
f 134/3/4 132/3/4 136/3/4
f 131/3/4 135/3/4 137/3/4
f 135/3/4 136/3/4 137/3/4
f 136/3/4 132/3/4 138/3/4
f 137/3/4 136/3/4 138/3/4
f 139/3/4 140/3/4 141/3/4
f 141/3/4 140/3/4 142/3/4
f 143/3/4 144/3/4 145/3/4
f 145/3/4 144/3/4 146/3/4
f 147/3/4 148/3/4 149/3/4
f 149/3/4 148/3/4 150/3/4
f 151/3/4 152/3/4 153/3/4
f 153/3/4 152/3/4 154/3/4
f 155/3/4 156/3/4 157/3/4
f 157/3/4 156/3/4 158/3/4
f 159/3/4 160/3/4 161/3/4
f 161/3/4 160/3/4 162/3/4
f 163/2/4 164/2/4 166/2/4
f 164/3/4 165/3/4 167/3/4
f 166/2/4 164/2/4 167/2/4
f 167/3/4 165/3/4 168/3/4
f 169/2/4 170/2/4 172/2/4
f 170/3/4 171/3/4 173/3/4
f 172/2/4 170/2/4 173/2/4
f 173/3/4 171/3/4 174/3/4
f 175/2/4 176/2/4 178/2/4
f 176/3/4 177/3/4 179/3/4
f 178/2/4 176/2/4 179/2/4
f 179/3/4 177/3/4 180/3/4
f 183/3/5 182/3/5 181/3/5
f 184/3/5 182/3/5 183/3/5
f 187/3/5 186/3/5 185/3/5
f 188/3/5 186/3/5 187/3/5
f 191/3/5 190/3/5 189/3/5
f 192/3/5 190/3/5 191/3/5
f 195/3/5 194/3/5 193/3/5
f 196/3/5 194/3/5 195/3/5
f 199/3/5 198/3/5 197/3/5
f 200/3/5 198/3/5 199/3/5
f 203/3/5 202/3/5 201/3/5
f 204/3/5 202/3/5 203/3/5
f 207/3/5 206/3/5 205/3/5
f 208/3/5 206/3/5 207/3/5
f 209/3/5 206/3/5 208/3/5
f 210/3/5 206/3/5 209/3/5
f 212/3/5 209/3/5 208/3/5
f 213/3/5 209/3/5 212/3/5
f 215/3/5 212/3/5 211/3/5
f 215/3/5 214/3/5 213/3/5
f 215/3/5 213/3/5 212/3/5
f 216/3/5 214/3/5 215/3/5
f 217/2/5 216/2/5 215/2/5
f 218/2/5 216/2/5 217/2/5
f 219/2/5 216/2/5 218/2/5
f 220/2/5 216/2/5 219/2/5
f 221/2/5 219/2/5 218/2/5
f 222/2/5 219/2/5 221/2/5
f 227/3/5 224/3/5 223/3/5
f 228/3/5 224/3/5 227/3/5
f 229/3/5 226/3/5 225/3/5
f 230/3/5 226/3/5 229/3/5
f 231/3/6 232/3/6 233/3/6
f 233/3/6 232/3/6 234/3/6
f 235/3/6 236/3/6 237/3/6
f 237/3/6 236/3/6 238/3/6
f 239/3/6 240/3/6 241/3/6
f 241/3/6 240/3/6 242/3/6
f 243/3/6 244/3/6 245/3/6
f 245/3/6 244/3/6 246/3/6
f 247/3/6 248/3/6 249/3/6
f 249/3/6 248/3/6 250/3/6
f 251/3/6 252/3/6 253/3/6
f 253/3/6 252/3/6 254/3/6
f 255/3/6 256/3/6 257/3/6
f 257/3/6 256/3/6 258/3/6
f 258/3/6 256/3/6 259/3/6
f 259/3/6 256/3/6 260/3/6
f 258/3/6 259/3/6 261/3/6
f 261/3/6 259/3/6 262/3/6
