# MagicaVoxel @ Ephtracy

# group
o 

# material
mtllib MapV3-80.mtl
usemtl palette

# normals
vn -1 0 0
vn 1 0 0
vn 0 0 1
vn 0 0 -1
vn 0 -1 0
vn 0 1 0

# texcoords
vt 0.728516 0.5
vt 0.912109 0.5
vt 0.939453 0.5
vt 0.970703 0.5
vt 0.978516 0.5

# verts
v 16 6.4 -16
v 16 6.4 -22.4
v 16 6.5 -16
v 16 6.5 -22.4
v 16.3 8.2 -16
v 16.3 8.2 -16.1
v 16.3 8.2 -16.4
v 16.3 8.2 -16.7
v 16.3 8.2 -17
v 16.3 8.2 -17.3
v 16.3 8.3 -16
v 16.3 8.3 -16.1
v 16.3 8.3 -16.4
v 16.3 8.3 -16.7
v 16.3 8.3 -17
v 16.3 8.3 -17.3
v 16.4 8.1 -16
v 16.4 8.1 -16.1
v 16.4 8.1 -16.4
v 16.4 8.1 -16.7
v 16.4 8.1 -17
v 16.4 8.1 -17.3
v 16.4 8.2 -16
v 16.4 8.2 -16.1
v 16.4 8.2 -16.4
v 16.4 8.2 -16.7
v 16.4 8.2 -17
v 16.4 8.2 -17.3
v 16.4 8.3 -16
v 16.4 8.3 -16.1
v 16.4 8.3 -16.4
v 16.4 8.3 -16.7
v 16.4 8.3 -17
v 16.4 8.3 -17.3
v 16.4 8.4 -16
v 16.4 8.4 -16.1
v 16.4 8.4 -16.4
v 16.4 8.4 -16.7
v 16.4 8.4 -17
v 16.4 8.4 -17.3
v 17.4 6.5 -16
v 17.4 6.5 -22.4
v 17.4 6.6 -16
v 17.4 6.6 -22.4
v 17.7 6.5 -16
v 17.7 6.5 -19.1
v 17.7 6.5 -19.3
v 17.7 6.5 -22.4
v 17.7 6.6 -16
v 17.7 6.6 -22.4
v 20.6 6.5 -16
v 20.6 6.5 -22.4
v 20.6 6.6 -16
v 20.6 6.6 -22.4
v 20.9 6.5 -16
v 20.9 6.5 -19.1
v 20.9 6.5 -19.3
v 20.9 6.5 -22.4
v 20.9 6.6 -16
v 20.9 6.6 -22.4
v 16.5 8.1 -16
v 16.5 8.1 -16.1
v 16.5 8.1 -16.4
v 16.5 8.1 -16.7
v 16.5 8.1 -17
v 16.5 8.1 -17.3
v 16.5 8.2 -16
v 16.5 8.2 -16.1
v 16.5 8.2 -16.4
v 16.5 8.2 -16.7
v 16.5 8.2 -17
v 16.5 8.2 -17.3
v 16.5 8.3 -16
v 16.5 8.3 -16.1
v 16.5 8.3 -16.4
v 16.5 8.3 -16.7
v 16.5 8.3 -17
v 16.5 8.3 -17.3
v 16.5 8.4 -16
v 16.5 8.4 -16.1
v 16.5 8.4 -16.4
v 16.5 8.4 -16.7
v 16.5 8.4 -17
v 16.5 8.4 -17.3
v 16.6 8.2 -16
v 16.6 8.2 -16.1
v 16.6 8.2 -16.4
v 16.6 8.2 -16.7
v 16.6 8.2 -17
v 16.6 8.2 -17.3
v 16.6 8.3 -16
v 16.6 8.3 -16.1
v 16.6 8.3 -16.4
v 16.6 8.3 -16.7
v 16.6 8.3 -17
v 16.6 8.3 -17.3
v 17.5 6.5 -16
v 17.5 6.5 -22.4
v 17.5 6.6 -16
v 17.5 6.6 -22.4
v 17.8 6.5 -16
v 17.8 6.5 -19.1
v 17.8 6.5 -19.3
v 17.8 6.5 -22.4
v 17.8 6.6 -16
v 17.8 6.6 -22.4
v 20.7 6.5 -16
v 20.7 6.5 -22.4
v 20.7 6.6 -16
v 20.7 6.6 -22.4
v 21 6.5 -16
v 21 6.5 -19.1
v 21 6.5 -19.3
v 21 6.5 -22.4
v 21 6.6 -16
v 21 6.6 -22.4
v 22.4 6.4 -16
v 22.4 6.4 -19.1
v 22.4 6.4 -19.3
v 22.4 6.4 -22.4
v 22.4 6.5 -16
v 22.4 6.5 -19.1
v 22.4 6.5 -19.3
v 22.4 6.5 -22.4
v 16 6.4 -16
v 16 6.5 -16
v 16.3 8.2 -16
v 16.3 8.3 -16
v 16.4 8.1 -16
v 16.4 8.2 -16
v 16.4 8.3 -16
v 16.4 8.4 -16
v 16.5 8.1 -16
v 16.5 8.2 -16
v 16.5 8.3 -16
v 16.5 8.4 -16
v 16.6 8.2 -16
v 16.6 8.3 -16
v 17.4 6.5 -16
v 17.4 6.6 -16
v 17.5 6.5 -16
v 17.5 6.6 -16
v 17.7 6.5 -16
v 17.7 6.6 -16
v 17.8 6.5 -16
v 17.8 6.6 -16
v 20.6 6.5 -16
v 20.6 6.6 -16
v 20.7 6.5 -16
v 20.7 6.6 -16
v 20.9 6.5 -16
v 20.9 6.6 -16
v 21 6.5 -16
v 21 6.6 -16
v 22.4 6.4 -16
v 22.4 6.5 -16
v 16.3 8.2 -17.3
v 16.3 8.3 -17.3
v 16.4 8.1 -17.3
v 16.4 8.2 -17.3
v 16.4 8.3 -17.3
v 16.4 8.4 -17.3
v 16.5 8.1 -17.3
v 16.5 8.2 -17.3
v 16.5 8.3 -17.3
v 16.5 8.4 -17.3
v 16.6 8.2 -17.3
v 16.6 8.3 -17.3
v 16 6.4 -22.4
v 16 6.5 -22.4
v 17.4 6.5 -22.4
v 17.4 6.6 -22.4
v 17.5 6.5 -22.4
v 17.5 6.6 -22.4
v 17.7 6.5 -22.4
v 17.7 6.6 -22.4
v 17.8 6.5 -22.4
v 17.8 6.6 -22.4
v 20.6 6.5 -22.4
v 20.6 6.6 -22.4
v 20.7 6.5 -22.4
v 20.7 6.6 -22.4
v 20.9 6.5 -22.4
v 20.9 6.6 -22.4
v 21 6.5 -22.4
v 21 6.6 -22.4
v 22.4 6.4 -22.4
v 22.4 6.5 -22.4
v 16 6.4 -16
v 22.4 6.4 -16
v 17.6 6.4 -19.1
v 19.2 6.4 -19.1
v 20.8 6.4 -19.1
v 22.4 6.4 -19.1
v 17.6 6.4 -19.3
v 19.2 6.4 -19.3
v 20.8 6.4 -19.3
v 22.4 6.4 -19.3
v 16 6.4 -22.4
v 22.4 6.4 -22.4
v 16.4 8.1 -16
v 16.5 8.1 -16
v 16.4 8.1 -16.1
v 16.5 8.1 -16.1
v 16.4 8.1 -16.4
v 16.5 8.1 -16.4
v 16.4 8.1 -16.7
v 16.5 8.1 -16.7
v 16.4 8.1 -17
v 16.5 8.1 -17
v 16.4 8.1 -17.3
v 16.5 8.1 -17.3
v 16.3 8.2 -16
v 16.4 8.2 -16
v 16.5 8.2 -16
v 16.6 8.2 -16
v 16.3 8.2 -16.1
v 16.4 8.2 -16.1
v 16.5 8.2 -16.1
v 16.6 8.2 -16.1
v 16.3 8.2 -16.4
v 16.4 8.2 -16.4
v 16.5 8.2 -16.4
v 16.6 8.2 -16.4
v 16.3 8.2 -16.7
v 16.4 8.2 -16.7
v 16.5 8.2 -16.7
v 16.6 8.2 -16.7
v 16.3 8.2 -17
v 16.4 8.2 -17
v 16.5 8.2 -17
v 16.6 8.2 -17
v 16.3 8.2 -17.3
v 16.4 8.2 -17.3
v 16.5 8.2 -17.3
v 16.6 8.2 -17.3
v 16 6.5 -16
v 17.4 6.5 -16
v 17.5 6.5 -16
v 17.7 6.5 -16
v 17.8 6.5 -16
v 20.6 6.5 -16
v 20.7 6.5 -16
v 20.9 6.5 -16
v 21 6.5 -16
v 22.4 6.5 -16
v 17.6 6.5 -19.1
v 17.7 6.5 -19.1
v 17.8 6.5 -19.1
v 19.2 6.5 -19.1
v 20.8 6.5 -19.1
v 20.9 6.5 -19.1
v 21 6.5 -19.1
v 22.4 6.5 -19.1
v 17.6 6.5 -19.3
v 17.7 6.5 -19.3
v 17.8 6.5 -19.3
v 19.2 6.5 -19.3
v 20.8 6.5 -19.3
v 20.9 6.5 -19.3
v 21 6.5 -19.3
v 22.4 6.5 -19.3
v 16 6.5 -22.4
v 17.4 6.5 -22.4
v 17.5 6.5 -22.4
v 17.7 6.5 -22.4
v 17.8 6.5 -22.4
v 20.6 6.5 -22.4
v 20.7 6.5 -22.4
v 20.9 6.5 -22.4
v 21 6.5 -22.4
v 22.4 6.5 -22.4
v 17.4 6.6 -16
v 17.5 6.6 -16
v 17.7 6.6 -16
v 17.8 6.6 -16
v 20.6 6.6 -16
v 20.7 6.6 -16
v 20.9 6.6 -16
v 21 6.6 -16
v 17.4 6.6 -22.4
v 17.5 6.6 -22.4
v 17.7 6.6 -22.4
v 17.8 6.6 -22.4
v 20.6 6.6 -22.4
v 20.7 6.6 -22.4
v 20.9 6.6 -22.4
v 21 6.6 -22.4
v 16.3 8.3 -16
v 16.4 8.3 -16
v 16.5 8.3 -16
v 16.6 8.3 -16
v 16.3 8.3 -16.1
v 16.4 8.3 -16.1
v 16.5 8.3 -16.1
v 16.6 8.3 -16.1
v 16.3 8.3 -16.4
v 16.4 8.3 -16.4
v 16.5 8.3 -16.4
v 16.6 8.3 -16.4
v 16.3 8.3 -16.7
v 16.4 8.3 -16.7
v 16.5 8.3 -16.7
v 16.6 8.3 -16.7
v 16.3 8.3 -17
v 16.4 8.3 -17
v 16.5 8.3 -17
v 16.6 8.3 -17
v 16.3 8.3 -17.3
v 16.4 8.3 -17.3
v 16.5 8.3 -17.3
v 16.6 8.3 -17.3
v 16.4 8.4 -16
v 16.5 8.4 -16
v 16.4 8.4 -16.1
v 16.5 8.4 -16.1
v 16.4 8.4 -16.4
v 16.5 8.4 -16.4
v 16.4 8.4 -16.7
v 16.5 8.4 -16.7
v 16.4 8.4 -17
v 16.5 8.4 -17
v 16.4 8.4 -17.3
v 16.5 8.4 -17.3

# faces
f 3/5/1 2/5/1 1/5/1
f 4/5/1 2/5/1 3/5/1
f 11/4/1 6/4/1 5/4/1
f 12/1/1 7/1/1 6/1/1
f 12/4/1 6/4/1 11/4/1
f 13/4/1 8/4/1 7/4/1
f 13/1/1 7/1/1 12/1/1
f 14/1/1 9/1/1 8/1/1
f 14/4/1 8/4/1 13/4/1
f 15/4/1 10/4/1 9/4/1
f 15/1/1 9/1/1 14/1/1
f 16/4/1 10/4/1 15/4/1
f 23/4/1 18/4/1 17/4/1
f 24/1/1 19/1/1 18/1/1
f 24/4/1 18/4/1 23/4/1
f 25/4/1 20/4/1 19/4/1
f 25/1/1 19/1/1 24/1/1
f 26/1/1 21/1/1 20/1/1
f 26/4/1 20/4/1 25/4/1
f 27/4/1 22/4/1 21/4/1
f 27/1/1 21/1/1 26/1/1
f 28/4/1 22/4/1 27/4/1
f 35/4/1 30/4/1 29/4/1
f 36/1/1 31/1/1 30/1/1
f 36/4/1 30/4/1 35/4/1
f 37/4/1 32/4/1 31/4/1
f 37/1/1 31/1/1 36/1/1
f 38/1/1 33/1/1 32/1/1
f 38/4/1 32/4/1 37/4/1
f 39/4/1 34/4/1 33/4/1
f 39/1/1 33/1/1 38/1/1
f 40/4/1 34/4/1 39/4/1
f 43/2/1 42/2/1 41/2/1
f 44/2/1 42/2/1 43/2/1
f 49/2/1 46/2/1 45/2/1
f 49/2/1 48/2/1 47/2/1
f 49/2/1 47/2/1 46/2/1
f 50/2/1 48/2/1 49/2/1
f 53/2/1 52/2/1 51/2/1
f 54/2/1 52/2/1 53/2/1
f 59/2/1 56/2/1 55/2/1
f 59/2/1 58/2/1 57/2/1
f 59/2/1 57/2/1 56/2/1
f 60/2/1 58/2/1 59/2/1
f 61/4/2 62/4/2 67/4/2
f 62/1/2 63/1/2 68/1/2
f 67/4/2 62/4/2 68/4/2
f 63/4/2 64/4/2 69/4/2
f 68/1/2 63/1/2 69/1/2
f 64/1/2 65/1/2 70/1/2
f 69/4/2 64/4/2 70/4/2
f 65/4/2 66/4/2 71/4/2
f 70/1/2 65/1/2 71/1/2
f 71/4/2 66/4/2 72/4/2
f 73/4/2 74/4/2 79/4/2
f 74/1/2 75/1/2 80/1/2
f 79/4/2 74/4/2 80/4/2
f 75/4/2 76/4/2 81/4/2
f 80/1/2 75/1/2 81/1/2
f 76/1/2 77/1/2 82/1/2
f 81/4/2 76/4/2 82/4/2
f 77/4/2 78/4/2 83/4/2
f 82/1/2 77/1/2 83/1/2
f 83/4/2 78/4/2 84/4/2
f 85/4/2 86/4/2 91/4/2
f 86/1/2 87/1/2 92/1/2
f 91/4/2 86/4/2 92/4/2
f 87/4/2 88/4/2 93/4/2
f 92/1/2 87/1/2 93/1/2
f 88/1/2 89/1/2 94/1/2
f 93/4/2 88/4/2 94/4/2
f 89/4/2 90/4/2 95/4/2
f 94/1/2 89/1/2 95/1/2
f 95/4/2 90/4/2 96/4/2
f 97/2/2 98/2/2 99/2/2
f 99/2/2 98/2/2 100/2/2
f 101/2/2 102/2/2 105/2/2
f 103/2/2 104/2/2 105/2/2
f 102/2/2 103/2/2 105/2/2
f 105/2/2 104/2/2 106/2/2
f 107/2/2 108/2/2 109/2/2
f 109/2/2 108/2/2 110/2/2
f 111/2/2 112/2/2 115/2/2
f 113/2/2 114/2/2 115/2/2
f 112/2/2 113/2/2 115/2/2
f 115/2/2 114/2/2 116/2/2
f 117/5/2 118/5/2 121/5/2
f 118/3/2 119/3/2 122/3/2
f 121/5/2 118/5/2 122/5/2
f 119/5/2 120/5/2 123/5/2
f 122/3/2 119/3/2 123/3/2
f 123/5/2 120/5/2 124/5/2
f 130/4/3 128/4/3 127/4/3
f 131/4/3 128/4/3 130/4/3
f 133/4/3 130/4/3 129/4/3
f 133/4/3 132/4/3 131/4/3
f 133/4/3 131/4/3 130/4/3
f 134/4/3 132/4/3 133/4/3
f 135/4/3 132/4/3 134/4/3
f 136/4/3 132/4/3 135/4/3
f 137/4/3 135/4/3 134/4/3
f 138/4/3 135/4/3 137/4/3
f 139/5/3 126/5/3 125/5/3
f 141/5/3 139/5/3 125/5/3
f 141/2/3 140/2/3 139/2/3
f 142/2/3 140/2/3 141/2/3
f 143/5/3 141/5/3 125/5/3
f 145/5/3 143/5/3 125/5/3
f 145/2/3 144/2/3 143/2/3
f 146/2/3 144/2/3 145/2/3
f 147/5/3 145/5/3 125/5/3
f 149/5/3 147/5/3 125/5/3
f 149/2/3 148/2/3 147/2/3
f 150/2/3 148/2/3 149/2/3
f 151/5/3 149/5/3 125/5/3
f 153/5/3 151/5/3 125/5/3
f 153/2/3 152/2/3 151/2/3
f 154/2/3 152/2/3 153/2/3
f 155/5/3 153/5/3 125/5/3
f 156/5/3 153/5/3 155/5/3
f 157/4/4 158/4/4 160/4/4
f 160/4/4 158/4/4 161/4/4
f 159/4/4 160/4/4 163/4/4
f 161/4/4 162/4/4 163/4/4
f 160/4/4 161/4/4 163/4/4
f 163/4/4 162/4/4 164/4/4
f 164/4/4 162/4/4 165/4/4
f 165/4/4 162/4/4 166/4/4
f 164/4/4 165/4/4 167/4/4
f 167/4/4 165/4/4 168/4/4
f 169/5/4 170/5/4 171/5/4
f 169/5/4 171/5/4 173/5/4
f 171/2/4 172/2/4 173/2/4
f 173/2/4 172/2/4 174/2/4
f 169/5/4 173/5/4 175/5/4
f 169/5/4 175/5/4 177/5/4
f 175/2/4 176/2/4 177/2/4
f 177/2/4 176/2/4 178/2/4
f 169/5/4 177/5/4 179/5/4
f 169/5/4 179/5/4 181/5/4
f 179/2/4 180/2/4 181/2/4
f 181/2/4 180/2/4 182/2/4
f 169/5/4 181/5/4 183/5/4
f 169/5/4 183/5/4 185/5/4
f 183/2/4 184/2/4 185/2/4
f 185/2/4 184/2/4 186/2/4
f 169/5/4 185/5/4 187/5/4
f 187/5/4 185/5/4 188/5/4
f 191/5/5 190/5/5 189/5/5
f 192/5/5 190/5/5 191/5/5
f 193/5/5 190/5/5 192/5/5
f 194/5/5 190/5/5 193/5/5
f 195/5/5 191/5/5 189/5/5
f 195/3/5 192/3/5 191/3/5
f 196/5/5 193/5/5 192/5/5
f 196/3/5 192/3/5 195/3/5
f 197/3/5 194/3/5 193/3/5
f 197/5/5 193/5/5 196/5/5
f 198/3/5 194/3/5 197/3/5
f 199/5/5 196/5/5 195/5/5
f 199/5/5 195/5/5 189/5/5
f 199/5/5 198/5/5 197/5/5
f 199/5/5 197/5/5 196/5/5
f 200/5/5 198/5/5 199/5/5
f 203/4/5 202/4/5 201/4/5
f 204/4/5 202/4/5 203/4/5
f 205/1/5 204/1/5 203/1/5
f 206/1/5 204/1/5 205/1/5
f 207/4/5 206/4/5 205/4/5
f 208/4/5 206/4/5 207/4/5
f 209/1/5 208/1/5 207/1/5
f 210/1/5 208/1/5 209/1/5
f 211/4/5 210/4/5 209/4/5
f 212/4/5 210/4/5 211/4/5
f 217/4/5 214/4/5 213/4/5
f 218/4/5 214/4/5 217/4/5
f 219/4/5 216/4/5 215/4/5
f 220/4/5 216/4/5 219/4/5
f 221/1/5 218/1/5 217/1/5
f 222/1/5 218/1/5 221/1/5
f 223/1/5 220/1/5 219/1/5
f 224/1/5 220/1/5 223/1/5
f 225/4/5 222/4/5 221/4/5
f 226/4/5 222/4/5 225/4/5
f 227/4/5 224/4/5 223/4/5
f 228/4/5 224/4/5 227/4/5
f 229/1/5 226/1/5 225/1/5
f 230/1/5 226/1/5 229/1/5
f 231/1/5 228/1/5 227/1/5
f 232/1/5 228/1/5 231/1/5
f 233/4/5 230/4/5 229/4/5
f 234/4/5 230/4/5 233/4/5
f 235/4/5 232/4/5 231/4/5
f 236/4/5 232/4/5 235/4/5
f 239/5/6 240/5/6 247/5/6
f 247/5/6 240/5/6 248/5/6
f 241/5/6 242/5/6 249/5/6
f 249/5/6 242/5/6 250/5/6
f 243/5/6 244/5/6 251/5/6
f 251/5/6 244/5/6 252/5/6
f 245/5/6 246/5/6 253/5/6
f 253/5/6 246/5/6 254/5/6
f 247/3/6 248/3/6 255/3/6
f 239/5/6 247/5/6 255/5/6
f 255/3/6 248/3/6 256/3/6
f 249/3/6 250/3/6 257/3/6
f 250/5/6 242/5/6 258/5/6
f 257/3/6 250/3/6 258/3/6
f 251/3/6 252/3/6 259/3/6
f 243/5/6 251/5/6 259/5/6
f 259/3/6 252/3/6 260/3/6
f 253/3/6 254/3/6 261/3/6
f 261/3/6 254/3/6 262/3/6
f 237/5/6 238/5/6 263/5/6
f 263/5/6 238/5/6 264/5/6
f 255/5/6 256/5/6 265/5/6
f 239/5/6 255/5/6 265/5/6
f 265/5/6 256/5/6 266/5/6
f 257/5/6 258/5/6 267/5/6
f 258/5/6 242/5/6 268/5/6
f 267/5/6 258/5/6 268/5/6
f 259/5/6 260/5/6 269/5/6
f 243/5/6 259/5/6 269/5/6
f 269/5/6 260/5/6 270/5/6
f 261/5/6 262/5/6 271/5/6
f 271/5/6 262/5/6 272/5/6
f 273/2/6 274/2/6 281/2/6
f 281/2/6 274/2/6 282/2/6
f 275/2/6 276/2/6 283/2/6
f 283/2/6 276/2/6 284/2/6
f 277/2/6 278/2/6 285/2/6
f 285/2/6 278/2/6 286/2/6
f 279/2/6 280/2/6 287/2/6
f 287/2/6 280/2/6 288/2/6
f 289/4/6 290/4/6 293/4/6
f 293/4/6 290/4/6 294/4/6
f 291/4/6 292/4/6 295/4/6
f 295/4/6 292/4/6 296/4/6
f 293/1/6 294/1/6 297/1/6
f 297/1/6 294/1/6 298/1/6
f 295/1/6 296/1/6 299/1/6
f 299/1/6 296/1/6 300/1/6
f 297/4/6 298/4/6 301/4/6
f 301/4/6 298/4/6 302/4/6
f 299/4/6 300/4/6 303/4/6
f 303/4/6 300/4/6 304/4/6
f 301/1/6 302/1/6 305/1/6
f 305/1/6 302/1/6 306/1/6
f 303/1/6 304/1/6 307/1/6
f 307/1/6 304/1/6 308/1/6
f 305/4/6 306/4/6 309/4/6
f 309/4/6 306/4/6 310/4/6
f 307/4/6 308/4/6 311/4/6
f 311/4/6 308/4/6 312/4/6
f 313/4/6 314/4/6 315/4/6
f 315/4/6 314/4/6 316/4/6
f 315/1/6 316/1/6 317/1/6
f 317/1/6 316/1/6 318/1/6
f 317/4/6 318/4/6 319/4/6
f 319/4/6 318/4/6 320/4/6
f 319/1/6 320/1/6 321/1/6
f 321/1/6 320/1/6 322/1/6
f 321/4/6 322/4/6 323/4/6
f 323/4/6 322/4/6 324/4/6
