# MagicaVoxel @ Ephtracy

# group
o 

# material
mtllib Tutorialmap_V1_SchrankUpdate-80.mtl
usemtl palette

# normals
vn -1 0 0
vn 1 0 0
vn 0 0 1
vn 0 0 -1
vn 0 -1 0
vn 0 1 0

# texcoords
vt 0.912109 0.5
vt 0.939453 0.5
vt 0.978516 0.5

# verts
v 16 6.4 -16
v 16 6.4 -22.4
v 16 6.5 -16
v 16 6.5 -22.4
v 17.4 6.5 -16
v 17.4 6.5 -22.4
v 17.4 6.6 -16
v 17.4 6.6 -22.4
v 17.7 6.5 -16
v 17.7 6.5 -19.1
v 17.7 6.5 -19.3
v 17.7 6.5 -22.4
v 17.7 6.6 -16
v 17.7 6.6 -22.4
v 20.6 6.5 -16
v 20.6 6.5 -22.4
v 20.6 6.6 -16
v 20.6 6.6 -22.4
v 20.9 6.5 -16
v 20.9 6.5 -19.1
v 20.9 6.5 -19.3
v 20.9 6.5 -22.4
v 20.9 6.6 -16
v 20.9 6.6 -22.4
v 17.5 6.5 -16
v 17.5 6.5 -22.4
v 17.5 6.6 -16
v 17.5 6.6 -22.4
v 17.8 6.5 -16
v 17.8 6.5 -19.1
v 17.8 6.5 -19.3
v 17.8 6.5 -22.4
v 17.8 6.6 -16
v 17.8 6.6 -22.4
v 20.7 6.5 -16
v 20.7 6.5 -22.4
v 20.7 6.6 -16
v 20.7 6.6 -22.4
v 21 6.5 -16
v 21 6.5 -19.1
v 21 6.5 -19.3
v 21 6.5 -22.4
v 21 6.6 -16
v 21 6.6 -22.4
v 22.4 6.4 -16
v 22.4 6.4 -19.1
v 22.4 6.4 -19.3
v 22.4 6.4 -22.4
v 22.4 6.5 -16
v 22.4 6.5 -19.1
v 22.4 6.5 -19.3
v 22.4 6.5 -22.4
v 16 6.4 -16
v 16 6.5 -16
v 17.4 6.5 -16
v 17.4 6.6 -16
v 17.5 6.5 -16
v 17.5 6.6 -16
v 17.7 6.5 -16
v 17.7 6.6 -16
v 17.8 6.5 -16
v 17.8 6.6 -16
v 20.6 6.5 -16
v 20.6 6.6 -16
v 20.7 6.5 -16
v 20.7 6.6 -16
v 20.9 6.5 -16
v 20.9 6.6 -16
v 21 6.5 -16
v 21 6.6 -16
v 22.4 6.4 -16
v 22.4 6.5 -16
v 16 6.4 -22.4
v 16 6.5 -22.4
v 17.4 6.5 -22.4
v 17.4 6.6 -22.4
v 17.5 6.5 -22.4
v 17.5 6.6 -22.4
v 17.7 6.5 -22.4
v 17.7 6.6 -22.4
v 17.8 6.5 -22.4
v 17.8 6.6 -22.4
v 20.6 6.5 -22.4
v 20.6 6.6 -22.4
v 20.7 6.5 -22.4
v 20.7 6.6 -22.4
v 20.9 6.5 -22.4
v 20.9 6.6 -22.4
v 21 6.5 -22.4
v 21 6.6 -22.4
v 22.4 6.4 -22.4
v 22.4 6.5 -22.4
v 16 6.4 -16
v 22.4 6.4 -16
v 17.6 6.4 -19.1
v 19.2 6.4 -19.1
v 20.8 6.4 -19.1
v 22.4 6.4 -19.1
v 17.6 6.4 -19.3
v 19.2 6.4 -19.3
v 20.8 6.4 -19.3
v 22.4 6.4 -19.3
v 16 6.4 -22.4
v 22.4 6.4 -22.4
v 16 6.5 -16
v 17.4 6.5 -16
v 17.5 6.5 -16
v 17.7 6.5 -16
v 17.8 6.5 -16
v 20.6 6.5 -16
v 20.7 6.5 -16
v 20.9 6.5 -16
v 21 6.5 -16
v 22.4 6.5 -16
v 17.6 6.5 -19.1
v 17.7 6.5 -19.1
v 17.8 6.5 -19.1
v 19.2 6.5 -19.1
v 20.8 6.5 -19.1
v 20.9 6.5 -19.1
v 21 6.5 -19.1
v 22.4 6.5 -19.1
v 17.6 6.5 -19.3
v 17.7 6.5 -19.3
v 17.8 6.5 -19.3
v 19.2 6.5 -19.3
v 20.8 6.5 -19.3
v 20.9 6.5 -19.3
v 21 6.5 -19.3
v 22.4 6.5 -19.3
v 16 6.5 -22.4
v 17.4 6.5 -22.4
v 17.5 6.5 -22.4
v 17.7 6.5 -22.4
v 17.8 6.5 -22.4
v 20.6 6.5 -22.4
v 20.7 6.5 -22.4
v 20.9 6.5 -22.4
v 21 6.5 -22.4
v 22.4 6.5 -22.4
v 17.4 6.6 -16
v 17.5 6.6 -16
v 17.7 6.6 -16
v 17.8 6.6 -16
v 20.6 6.6 -16
v 20.7 6.6 -16
v 20.9 6.6 -16
v 21 6.6 -16
v 17.4 6.6 -22.4
v 17.5 6.6 -22.4
v 17.7 6.6 -22.4
v 17.8 6.6 -22.4
v 20.6 6.6 -22.4
v 20.7 6.6 -22.4
v 20.9 6.6 -22.4
v 21 6.6 -22.4

# faces
f 3/3/1 2/3/1 1/3/1
f 4/3/1 2/3/1 3/3/1
f 7/1/1 6/1/1 5/1/1
f 8/1/1 6/1/1 7/1/1
f 13/1/1 10/1/1 9/1/1
f 13/1/1 12/1/1 11/1/1
f 13/1/1 11/1/1 10/1/1
f 14/1/1 12/1/1 13/1/1
f 17/1/1 16/1/1 15/1/1
f 18/1/1 16/1/1 17/1/1
f 23/1/1 20/1/1 19/1/1
f 23/1/1 22/1/1 21/1/1
f 23/1/1 21/1/1 20/1/1
f 24/1/1 22/1/1 23/1/1
f 25/1/2 26/1/2 27/1/2
f 27/1/2 26/1/2 28/1/2
f 29/1/2 30/1/2 33/1/2
f 31/1/2 32/1/2 33/1/2
f 30/1/2 31/1/2 33/1/2
f 33/1/2 32/1/2 34/1/2
f 35/1/2 36/1/2 37/1/2
f 37/1/2 36/1/2 38/1/2
f 39/1/2 40/1/2 43/1/2
f 41/1/2 42/1/2 43/1/2
f 40/1/2 41/1/2 43/1/2
f 43/1/2 42/1/2 44/1/2
f 45/3/2 46/3/2 49/3/2
f 46/2/2 47/2/2 50/2/2
f 49/3/2 46/3/2 50/3/2
f 47/3/2 48/3/2 51/3/2
f 50/2/2 47/2/2 51/2/2
f 51/3/2 48/3/2 52/3/2
f 55/3/3 54/3/3 53/3/3
f 57/3/3 55/3/3 53/3/3
f 57/1/3 56/1/3 55/1/3
f 58/1/3 56/1/3 57/1/3
f 59/3/3 57/3/3 53/3/3
f 61/3/3 59/3/3 53/3/3
f 61/1/3 60/1/3 59/1/3
f 62/1/3 60/1/3 61/1/3
f 63/3/3 61/3/3 53/3/3
f 65/3/3 63/3/3 53/3/3
f 65/1/3 64/1/3 63/1/3
f 66/1/3 64/1/3 65/1/3
f 67/3/3 65/3/3 53/3/3
f 69/3/3 67/3/3 53/3/3
f 69/1/3 68/1/3 67/1/3
f 70/1/3 68/1/3 69/1/3
f 71/3/3 69/3/3 53/3/3
f 72/3/3 69/3/3 71/3/3
f 73/3/4 74/3/4 75/3/4
f 73/3/4 75/3/4 77/3/4
f 75/1/4 76/1/4 77/1/4
f 77/1/4 76/1/4 78/1/4
f 73/3/4 77/3/4 79/3/4
f 73/3/4 79/3/4 81/3/4
f 79/1/4 80/1/4 81/1/4
f 81/1/4 80/1/4 82/1/4
f 73/3/4 81/3/4 83/3/4
f 73/3/4 83/3/4 85/3/4
f 83/1/4 84/1/4 85/1/4
f 85/1/4 84/1/4 86/1/4
f 73/3/4 85/3/4 87/3/4
f 73/3/4 87/3/4 89/3/4
f 87/1/4 88/1/4 89/1/4
f 89/1/4 88/1/4 90/1/4
f 73/3/4 89/3/4 91/3/4
f 91/3/4 89/3/4 92/3/4
f 95/3/5 94/3/5 93/3/5
f 96/3/5 94/3/5 95/3/5
f 97/3/5 94/3/5 96/3/5
f 98/3/5 94/3/5 97/3/5
f 99/3/5 95/3/5 93/3/5
f 99/2/5 96/2/5 95/2/5
f 100/3/5 97/3/5 96/3/5
f 100/2/5 96/2/5 99/2/5
f 101/2/5 98/2/5 97/2/5
f 101/3/5 97/3/5 100/3/5
f 102/2/5 98/2/5 101/2/5
f 103/3/5 100/3/5 99/3/5
f 103/3/5 99/3/5 93/3/5
f 103/3/5 102/3/5 101/3/5
f 103/3/5 101/3/5 100/3/5
f 104/3/5 102/3/5 103/3/5
f 107/3/6 108/3/6 115/3/6
f 115/3/6 108/3/6 116/3/6
f 109/3/6 110/3/6 117/3/6
f 117/3/6 110/3/6 118/3/6
f 111/3/6 112/3/6 119/3/6
f 119/3/6 112/3/6 120/3/6
f 113/3/6 114/3/6 121/3/6
f 121/3/6 114/3/6 122/3/6
f 115/2/6 116/2/6 123/2/6
f 107/3/6 115/3/6 123/3/6
f 123/2/6 116/2/6 124/2/6
f 117/2/6 118/2/6 125/2/6
f 118/3/6 110/3/6 126/3/6
f 125/2/6 118/2/6 126/2/6
f 119/2/6 120/2/6 127/2/6
f 111/3/6 119/3/6 127/3/6
f 127/2/6 120/2/6 128/2/6
f 121/2/6 122/2/6 129/2/6
f 129/2/6 122/2/6 130/2/6
f 105/3/6 106/3/6 131/3/6
f 131/3/6 106/3/6 132/3/6
f 123/3/6 124/3/6 133/3/6
f 107/3/6 123/3/6 133/3/6
f 133/3/6 124/3/6 134/3/6
f 125/3/6 126/3/6 135/3/6
f 126/3/6 110/3/6 136/3/6
f 135/3/6 126/3/6 136/3/6
f 127/3/6 128/3/6 137/3/6
f 111/3/6 127/3/6 137/3/6
f 137/3/6 128/3/6 138/3/6
f 129/3/6 130/3/6 139/3/6
f 139/3/6 130/3/6 140/3/6
f 141/1/6 142/1/6 149/1/6
f 149/1/6 142/1/6 150/1/6
f 143/1/6 144/1/6 151/1/6
f 151/1/6 144/1/6 152/1/6
f 145/1/6 146/1/6 153/1/6
f 153/1/6 146/1/6 154/1/6
f 147/1/6 148/1/6 155/1/6
f 155/1/6 148/1/6 156/1/6
