# MagicaVoxel @ Ephtracy

# group
o 

# material
mtllib MapWIP_v02-26.mtl
usemtl palette

# normals
vn -1 0 0
vn 1 0 0
vn 0 0 1
vn 0 0 -1
vn 0 -1 0
vn 0 1 0

# texcoords
vt 0.0488281 0.5
vt 0.0527344 0.5
vt 0.880859 0.5

# verts
v 20.6 14.2 9.6
v 20.6 14.2 9.3
v 20.6 14.3 9.4
v 20.6 14.3 9.3
v 20.6 14.3 9.2
v 20.6 14.4 9.6
v 20.6 14.4 9.4
v 20.6 17.1 9.6
v 20.6 17.1 9.4
v 20.6 17.1 9.3
v 20.6 17.2 9.3
v 20.6 17.2 9.2
v 20.6 17.3 9.6
v 20.6 17.3 9.2
v 21.6 14.2 9.6
v 21.6 14.2 9.3
v 21.6 14.3 9.4
v 21.6 14.3 9.3
v 21.6 14.4 9.6
v 21.6 14.4 9.4
v 21.6 17.1 9.6
v 21.6 17.1 9.4
v 21.6 17.2 9.4
v 21.6 17.2 9.2
v 21.6 17.3 9.6
v 21.6 17.3 9.2
v 20.8 14.2 9.6
v 20.8 14.2 9.3
v 20.8 14.3 9.4
v 20.8 14.3 9.3
v 20.8 14.4 9.6
v 20.8 14.4 9.4
v 20.8 17.1 9.6
v 20.8 17.1 9.4
v 20.8 17.2 9.4
v 20.8 17.2 9.2
v 20.8 17.3 9.6
v 20.8 17.3 9.2
v 21.8 14.2 9.6
v 21.8 14.2 9.3
v 21.8 14.3 9.4
v 21.8 14.3 9.3
v 21.8 14.3 9.2
v 21.8 14.4 9.6
v 21.8 14.4 9.4
v 21.8 17.1 9.6
v 21.8 17.1 9.4
v 21.8 17.1 9.3
v 21.8 17.2 9.3
v 21.8 17.2 9.2
v 21.8 17.3 9.6
v 21.8 17.3 9.2
v 20.6 14.2 9.6
v 20.6 14.4 9.6
v 20.6 17.1 9.6
v 20.6 17.3 9.6
v 20.8 14.2 9.6
v 20.8 14.4 9.6
v 20.8 17.1 9.6
v 20.8 17.3 9.6
v 21.6 14.2 9.6
v 21.6 14.4 9.6
v 21.6 17.1 9.6
v 21.6 17.3 9.6
v 21.8 14.2 9.6
v 21.8 14.4 9.6
v 21.8 17.1 9.6
v 21.8 17.3 9.6
v 20.6 14.4 9.4
v 20.6 17.1 9.4
v 20.8 14.3 9.4
v 20.8 14.4 9.4
v 20.8 17.1 9.4
v 20.8 17.2 9.4
v 21.6 14.3 9.4
v 21.6 14.4 9.4
v 21.6 17.1 9.4
v 21.6 17.2 9.4
v 21.8 14.4 9.4
v 21.8 17.1 9.4
v 20.6 14.2 9.3
v 20.6 14.3 9.3
v 20.8 14.2 9.3
v 20.8 14.3 9.3
v 21.6 14.2 9.3
v 21.6 14.3 9.3
v 21.8 14.2 9.3
v 21.8 14.3 9.3
v 20.6 14.3 9.2
v 20.6 17.2 9.2
v 20.6 17.3 9.2
v 20.8 15 9.2
v 20.8 15.2 9.2
v 20.8 17.2 9.2
v 20.8 17.3 9.2
v 20.9 14.8 9.2
v 20.9 15 9.2
v 20.9 15.1 9.2
v 20.9 15.2 9.2
v 20.9 15.4 9.2
v 20.9 16.1 9.2
v 20.9 16.4 9.2
v 21 14.7 9.2
v 21 14.8 9.2
v 21 14.9 9.2
v 21 15 9.2
v 21 15.1 9.2
v 21 15.3 9.2
v 21 15.4 9.2
v 21 15.5 9.2
v 21 15.6 9.2
v 21 15.8 9.2
v 21 16.1 9.2
v 21 16.3 9.2
v 21 16.4 9.2
v 21 16.5 9.2
v 21.1 14.6 9.2
v 21.1 14.7 9.2
v 21.1 15.3 9.2
v 21.1 15.4 9.2
v 21.1 15.6 9.2
v 21.1 15.7 9.2
v 21.1 15.8 9.2
v 21.1 15.9 9.2
v 21.1 16.3 9.2
v 21.1 16.4 9.2
v 21.1 16.5 9.2
v 21.1 16.6 9.2
v 21.2 14.5 9.2
v 21.2 14.6 9.2
v 21.2 14.7 9.2
v 21.2 14.8 9.2
v 21.2 15.7 9.2
v 21.2 15.9 9.2
v 21.2 16.1 9.2
v 21.2 16.4 9.2
v 21.2 16.5 9.2
v 21.2 16.6 9.2
v 21.2 16.7 9.2
v 21.3 14.5 9.2
v 21.3 14.7 9.2
v 21.3 14.9 9.2
v 21.3 15.3 9.2
v 21.3 15.9 9.2
v 21.3 16 9.2
v 21.3 16.1 9.2
v 21.3 16.3 9.2
v 21.3 16.5 9.2
v 21.3 16.7 9.2
v 21.3 16.9 9.2
v 21.4 15 9.2
v 21.4 15.2 9.2
v 21.4 15.3 9.2
v 21.4 15.4 9.2
v 21.4 16 9.2
v 21.4 16.2 9.2
v 21.4 16.3 9.2
v 21.4 16.4 9.2
v 21.4 16.7 9.2
v 21.4 16.8 9.2
v 21.4 16.9 9.2
v 21.4 17 9.2
v 21.5 14.7 9.2
v 21.5 14.8 9.2
v 21.5 14.9 9.2
v 21.5 15 9.2
v 21.5 15.2 9.2
v 21.5 15.4 9.2
v 21.5 16.2 9.2
v 21.5 16.3 9.2
v 21.5 16.4 9.2
v 21.5 16.6 9.2
v 21.5 16.8 9.2
v 21.5 16.9 9.2
v 21.5 17 9.2
v 21.5 17.1 9.2
v 21.6 14.6 9.2
v 21.6 14.7 9.2
v 21.6 14.8 9.2
v 21.6 14.9 9.2
v 21.6 15.4 9.2
v 21.6 15.5 9.2
v 21.6 16.3 9.2
v 21.6 16.5 9.2
v 21.6 16.9 9.2
v 21.6 17.1 9.2
v 21.6 17.2 9.2
v 21.6 17.3 9.2
v 21.7 14.6 9.2
v 21.7 14.8 9.2
v 21.7 16.5 9.2
v 21.7 16.6 9.2
v 21.8 14.3 9.2
v 21.8 17.2 9.2
v 21.8 17.3 9.2
v 20.6 14.2 9.6
v 20.8 14.2 9.6
v 21.6 14.2 9.6
v 21.8 14.2 9.6
v 20.6 14.2 9.3
v 20.8 14.2 9.3
v 21.6 14.2 9.3
v 21.8 14.2 9.3
v 20.8 14.3 9.4
v 21.6 14.3 9.4
v 20.6 14.3 9.3
v 20.8 14.3 9.3
v 21.6 14.3 9.3
v 21.8 14.3 9.3
v 20.6 14.3 9.2
v 21.8 14.3 9.2
v 20.6 17.1 9.6
v 20.8 17.1 9.6
v 21.6 17.1 9.6
v 21.8 17.1 9.6
v 20.6 17.1 9.4
v 20.8 17.1 9.4
v 21.6 17.1 9.4
v 21.8 17.1 9.4
v 20.6 14.4 9.6
v 20.8 14.4 9.6
v 21.6 14.4 9.6
v 21.8 14.4 9.6
v 20.6 14.4 9.4
v 20.8 14.4 9.4
v 21.6 14.4 9.4
v 21.8 14.4 9.4
v 20.8 17.2 9.4
v 21.6 17.2 9.4
v 20.8 17.2 9.2
v 21.6 17.2 9.2
v 20.6 17.3 9.6
v 20.8 17.3 9.6
v 21.6 17.3 9.6
v 21.8 17.3 9.6
v 20.6 17.3 9.2
v 20.8 17.3 9.2
v 21.6 17.3 9.2
v 21.8 17.3 9.2

# faces
f 3/3/1 2/3/1 1/3/1
f 4/3/1 2/3/1 3/3/1
f 6/3/1 3/3/1 1/3/1
f 7/2/1 5/2/1 4/2/1
f 7/3/1 3/3/1 6/3/1
f 7/2/1 4/2/1 3/2/1
f 9/2/1 5/2/1 7/2/1
f 10/2/1 5/2/1 9/2/1
f 11/3/1 9/3/1 8/3/1
f 11/2/1 5/2/1 10/2/1
f 11/3/1 10/3/1 9/3/1
f 12/2/1 5/2/1 11/2/1
f 13/3/1 11/3/1 8/3/1
f 13/3/1 12/3/1 11/3/1
f 14/3/1 12/3/1 13/3/1
f 17/3/1 16/3/1 15/3/1
f 18/3/1 16/3/1 17/3/1
f 19/3/1 17/3/1 15/3/1
f 20/3/1 17/3/1 19/3/1
f 23/3/1 22/3/1 21/3/1
f 25/3/1 23/3/1 21/3/1
f 25/3/1 24/3/1 23/3/1
f 26/3/1 24/3/1 25/3/1
f 27/3/2 28/3/2 29/3/2
f 29/3/2 28/3/2 30/3/2
f 27/3/2 29/3/2 31/3/2
f 31/3/2 29/3/2 32/3/2
f 33/3/2 34/3/2 35/3/2
f 33/3/2 35/3/2 37/3/2
f 35/3/2 36/3/2 37/3/2
f 37/3/2 36/3/2 38/3/2
f 39/3/2 40/3/2 41/3/2
f 41/3/2 40/3/2 42/3/2
f 39/3/2 41/3/2 44/3/2
f 42/2/2 43/2/2 45/2/2
f 44/3/2 41/3/2 45/3/2
f 41/2/2 42/2/2 45/2/2
f 45/2/2 43/2/2 47/2/2
f 47/2/2 43/2/2 48/2/2
f 46/3/2 47/3/2 49/3/2
f 48/2/2 43/2/2 49/2/2
f 47/3/2 48/3/2 49/3/2
f 49/2/2 43/2/2 50/2/2
f 46/3/2 49/3/2 51/3/2
f 49/3/2 50/3/2 51/3/2
f 51/3/2 50/3/2 52/3/2
f 57/3/3 54/3/3 53/3/3
f 58/3/3 54/3/3 57/3/3
f 59/3/3 56/3/3 55/3/3
f 60/3/3 56/3/3 59/3/3
f 65/3/3 62/3/3 61/3/3
f 66/3/3 62/3/3 65/3/3
f 67/3/3 64/3/3 63/3/3
f 68/3/3 64/3/3 67/3/3
f 72/2/3 70/2/3 69/2/3
f 73/2/3 70/2/3 72/2/3
f 75/2/3 72/2/3 71/2/3
f 75/2/3 74/2/3 73/2/3
f 75/2/3 73/2/3 72/2/3
f 76/2/3 74/2/3 75/2/3
f 77/2/3 74/2/3 76/2/3
f 78/2/3 74/2/3 77/2/3
f 79/2/3 77/2/3 76/2/3
f 80/2/3 77/2/3 79/2/3
f 81/3/4 82/3/4 83/3/4
f 83/3/4 82/3/4 84/3/4
f 85/3/4 86/3/4 87/3/4
f 87/3/4 86/3/4 88/3/4
f 89/2/4 90/2/4 92/2/4
f 92/2/4 90/2/4 93/2/4
f 90/3/4 91/3/4 94/3/4
f 93/2/4 90/2/4 94/2/4
f 94/3/4 91/3/4 95/3/4
f 89/2/4 92/2/4 96/2/4
f 92/1/4 93/1/4 97/1/4
f 96/2/4 92/2/4 97/2/4
f 97/1/4 93/1/4 98/1/4
f 93/2/4 94/2/4 99/2/4
f 98/1/4 93/1/4 99/1/4
f 99/2/4 94/2/4 100/2/4
f 100/2/4 94/2/4 101/2/4
f 101/2/4 94/2/4 102/2/4
f 89/2/4 96/2/4 103/2/4
f 96/1/4 97/1/4 104/1/4
f 103/2/4 96/2/4 104/2/4
f 104/1/4 97/1/4 105/1/4
f 97/2/4 98/2/4 106/2/4
f 105/1/4 97/1/4 106/1/4
f 98/1/4 99/1/4 107/1/4
f 106/2/4 98/2/4 107/2/4
f 99/1/4 100/1/4 107/1/4
f 107/1/4 100/1/4 108/1/4
f 100/2/4 101/2/4 109/2/4
f 108/1/4 100/1/4 109/1/4
f 109/2/4 101/2/4 110/2/4
f 110/2/4 101/2/4 111/2/4
f 111/2/4 101/2/4 112/2/4
f 101/1/4 102/1/4 113/1/4
f 112/2/4 101/2/4 113/2/4
f 113/1/4 102/1/4 114/1/4
f 102/2/4 94/2/4 115/2/4
f 114/1/4 102/1/4 115/1/4
f 115/2/4 94/2/4 116/2/4
f 89/2/4 103/2/4 117/2/4
f 104/1/4 105/1/4 118/1/4
f 117/2/4 103/2/4 118/2/4
f 103/1/4 104/1/4 118/1/4
f 105/2/4 106/2/4 119/2/4
f 107/2/4 108/2/4 119/2/4
f 106/2/4 107/2/4 119/2/4
f 108/1/4 109/1/4 119/1/4
f 109/1/4 110/1/4 119/1/4
f 119/1/4 110/1/4 120/1/4
f 111/1/4 112/1/4 121/1/4
f 110/2/4 111/2/4 121/2/4
f 121/1/4 112/1/4 122/1/4
f 113/2/4 114/2/4 123/2/4
f 122/1/4 112/1/4 123/1/4
f 112/2/4 113/2/4 123/2/4
f 123/2/4 114/2/4 124/2/4
f 115/1/4 116/1/4 125/1/4
f 124/2/4 114/2/4 125/2/4
f 114/1/4 115/1/4 125/1/4
f 125/1/4 116/1/4 126/1/4
f 116/2/4 94/2/4 127/2/4
f 126/1/4 116/1/4 127/1/4
f 127/2/4 94/2/4 128/2/4
f 89/2/4 117/2/4 129/2/4
f 117/1/4 118/1/4 130/1/4
f 129/2/4 117/2/4 130/2/4
f 118/1/4 105/1/4 131/1/4
f 130/1/4 118/1/4 131/1/4
f 131/1/4 105/1/4 132/1/4
f 121/2/4 122/2/4 133/2/4
f 123/1/4 124/1/4 133/1/4
f 122/1/4 123/1/4 133/1/4
f 125/2/4 126/2/4 134/2/4
f 133/1/4 124/1/4 134/1/4
f 124/2/4 125/2/4 134/2/4
f 134/2/4 126/2/4 135/2/4
f 127/1/4 128/1/4 136/1/4
f 135/2/4 126/2/4 136/2/4
f 126/1/4 127/1/4 136/1/4
f 136/1/4 128/1/4 137/1/4
f 128/2/4 94/2/4 138/2/4
f 137/1/4 128/1/4 138/1/4
f 138/2/4 94/2/4 139/2/4
f 129/1/4 130/1/4 140/1/4
f 89/2/4 129/2/4 140/2/4
f 130/1/4 131/1/4 140/1/4
f 131/2/4 132/2/4 141/2/4
f 140/1/4 131/1/4 141/1/4
f 132/1/4 105/1/4 142/1/4
f 119/2/4 120/2/4 142/2/4
f 105/2/4 119/2/4 142/2/4
f 142/2/4 120/2/4 143/2/4
f 134/1/4 135/1/4 144/1/4
f 133/2/4 134/2/4 144/2/4
f 144/1/4 135/1/4 145/1/4
f 136/2/4 137/2/4 146/2/4
f 145/1/4 135/1/4 146/1/4
f 135/2/4 136/2/4 146/2/4
f 146/2/4 137/2/4 147/2/4
f 138/1/4 139/1/4 148/1/4
f 147/2/4 137/2/4 148/2/4
f 137/1/4 138/1/4 148/1/4
f 139/2/4 94/2/4 149/2/4
f 148/1/4 139/1/4 149/1/4
f 149/2/4 94/2/4 150/2/4
f 142/1/4 143/1/4 151/1/4
f 151/1/4 143/1/4 152/1/4
f 143/2/4 120/2/4 153/2/4
f 152/1/4 143/1/4 153/1/4
f 120/1/4 110/1/4 154/1/4
f 153/2/4 120/2/4 154/2/4
f 144/2/4 145/2/4 155/2/4
f 146/1/4 147/1/4 155/1/4
f 145/1/4 146/1/4 155/1/4
f 155/1/4 147/1/4 156/1/4
f 147/2/4 148/2/4 157/2/4
f 156/1/4 147/1/4 157/1/4
f 148/2/4 149/2/4 157/2/4
f 157/2/4 149/2/4 158/2/4
f 149/1/4 150/1/4 159/1/4
f 158/2/4 149/2/4 159/2/4
f 159/1/4 150/1/4 160/1/4
f 150/2/4 94/2/4 161/2/4
f 160/1/4 150/1/4 161/1/4
f 161/2/4 94/2/4 162/2/4
f 141/2/4 132/2/4 163/2/4
f 140/2/4 141/2/4 163/2/4
f 142/1/4 151/1/4 164/1/4
f 163/2/4 132/2/4 164/2/4
f 132/1/4 142/1/4 164/1/4
f 164/1/4 151/1/4 165/1/4
f 151/2/4 152/2/4 166/2/4
f 165/1/4 151/1/4 166/1/4
f 153/1/4 154/1/4 167/1/4
f 166/2/4 152/2/4 167/2/4
f 152/1/4 153/1/4 167/1/4
f 154/1/4 110/1/4 168/1/4
f 167/1/4 154/1/4 168/1/4
f 155/2/4 156/2/4 169/2/4
f 157/1/4 158/1/4 169/1/4
f 156/1/4 157/1/4 169/1/4
f 169/1/4 158/1/4 170/1/4
f 159/2/4 160/2/4 171/2/4
f 170/1/4 158/1/4 171/1/4
f 158/2/4 159/2/4 171/2/4
f 171/2/4 160/2/4 172/2/4
f 161/1/4 162/1/4 173/1/4
f 172/2/4 160/2/4 173/2/4
f 160/1/4 161/1/4 173/1/4
f 173/1/4 162/1/4 174/1/4
f 162/2/4 94/2/4 175/2/4
f 174/1/4 162/1/4 175/1/4
f 175/2/4 94/2/4 176/2/4
f 140/2/4 163/2/4 177/2/4
f 163/1/4 164/1/4 178/1/4
f 177/2/4 163/2/4 178/2/4
f 164/1/4 165/1/4 178/1/4
f 178/1/4 165/1/4 179/1/4
f 166/2/4 167/2/4 180/2/4
f 179/1/4 165/1/4 180/1/4
f 165/2/4 166/2/4 180/2/4
f 167/2/4 168/2/4 180/2/4
f 168/1/4 110/1/4 181/1/4
f 180/2/4 168/2/4 181/2/4
f 121/2/4 133/2/4 182/2/4
f 181/1/4 110/1/4 182/1/4
f 110/2/4 121/2/4 182/2/4
f 133/2/4 144/2/4 182/2/4
f 155/2/4 169/2/4 182/2/4
f 169/2/4 170/2/4 182/2/4
f 144/2/4 155/2/4 182/2/4
f 171/1/4 172/1/4 183/1/4
f 182/2/4 170/2/4 183/2/4
f 170/1/4 171/1/4 183/1/4
f 183/1/4 172/1/4 184/1/4
f 173/2/4 174/2/4 185/2/4
f 172/2/4 173/2/4 185/2/4
f 174/1/4 175/1/4 185/1/4
f 175/1/4 176/1/4 185/1/4
f 176/2/4 94/2/4 186/2/4
f 185/1/4 176/1/4 186/1/4
f 186/2/4 94/2/4 187/2/4
f 178/1/4 179/1/4 189/1/4
f 177/1/4 178/1/4 189/1/4
f 140/2/4 177/2/4 189/2/4
f 180/2/4 181/2/4 190/2/4
f 189/1/4 179/1/4 190/1/4
f 179/2/4 180/2/4 190/2/4
f 182/2/4 183/2/4 190/2/4
f 181/2/4 182/2/4 190/2/4
f 183/2/4 184/2/4 190/2/4
f 184/1/4 172/1/4 191/1/4
f 190/2/4 184/2/4 191/2/4
f 172/2/4 185/2/4 192/2/4
f 191/1/4 172/1/4 192/1/4
f 186/2/4 187/2/4 192/2/4
f 185/2/4 186/2/4 192/2/4
f 189/2/4 190/2/4 193/2/4
f 140/2/4 189/2/4 193/2/4
f 191/2/4 192/2/4 193/2/4
f 89/2/4 140/2/4 193/2/4
f 190/2/4 191/2/4 193/2/4
f 192/2/4 187/2/4 194/2/4
f 193/2/4 192/2/4 194/2/4
f 187/3/4 188/3/4 194/3/4
f 194/3/4 188/3/4 195/3/4
f 200/3/5 197/3/5 196/3/5
f 201/3/5 197/3/5 200/3/5
f 202/3/5 199/3/5 198/3/5
f 203/3/5 199/3/5 202/3/5
f 207/2/5 205/2/5 204/2/5
f 208/2/5 205/2/5 207/2/5
f 210/2/5 207/2/5 206/2/5
f 210/2/5 209/2/5 208/2/5
f 210/2/5 208/2/5 207/2/5
f 211/2/5 209/2/5 210/2/5
f 216/3/5 213/3/5 212/3/5
f 217/3/5 213/3/5 216/3/5
f 218/3/5 215/3/5 214/3/5
f 219/3/5 215/3/5 218/3/5
f 220/3/6 221/3/6 224/3/6
f 224/3/6 221/3/6 225/3/6
f 222/3/6 223/3/6 226/3/6
f 226/3/6 223/3/6 227/3/6
f 228/2/6 229/2/6 230/2/6
f 230/2/6 229/2/6 231/2/6
f 232/3/6 233/3/6 236/3/6
f 236/3/6 233/3/6 237/3/6
f 234/3/6 235/3/6 238/3/6
f 238/3/6 235/3/6 239/3/6
