# MagicaVoxel @ Ephtracy

# group
o 

# material
mtllib StandardSelect.mtl
usemtl palette

# normals
vn -1 0 0
vn 1 0 0
vn 0 0 1
vn 0 0 -1
vn 0 -1 0
vn 0 1 0

# texcoords
vt 0.970703 0.5
vt 0.974609 0.5

# verts
v -0.8 0 0.8
v -0.8 0 0.3
v -0.8 0 -0.3
v -0.8 0 -0.8
v -0.8 0.1 0.8
v -0.8 0.1 0.3
v -0.8 0.1 -0.3
v -0.8 0.1 -0.8
v 0.3 0 0.8
v 0.3 0 0.7
v 0.3 0 -0.7
v 0.3 0 -0.8
v 0.3 0.1 0.8
v 0.3 0.1 0.7
v 0.3 0.1 -0.7
v 0.3 0.1 -0.8
v 0.4 0 0.7
v 0.4 0 0.6
v 0.4 0 -0.6
v 0.4 0 -0.7
v 0.4 0.1 0.7
v 0.4 0.1 0.6
v 0.4 0.1 -0.6
v 0.4 0.1 -0.7
v 0.6 0 0.6
v 0.6 0 0.4
v 0.6 0 -0.4
v 0.6 0 -0.6
v 0.6 0.1 0.6
v 0.6 0.1 0.4
v 0.6 0.1 -0.4
v 0.6 0.1 -0.6
v 0.7 0 0.4
v 0.7 0 0.3
v 0.7 0 -0.3
v 0.7 0 -0.4
v 0.7 0.1 0.4
v 0.7 0.1 0.3
v 0.7 0.1 -0.3
v 0.7 0.1 -0.4
v -0.7 0 0.4
v -0.7 0 0.3
v -0.7 0 -0.3
v -0.7 0 -0.4
v -0.7 0.1 0.4
v -0.7 0.1 0.3
v -0.7 0.1 -0.3
v -0.7 0.1 -0.4
v -0.6 0 0.6
v -0.6 0 0.4
v -0.6 0 -0.4
v -0.6 0 -0.6
v -0.6 0.1 0.6
v -0.6 0.1 0.4
v -0.6 0.1 -0.4
v -0.6 0.1 -0.6
v -0.4 0 0.7
v -0.4 0 0.6
v -0.4 0 -0.6
v -0.4 0 -0.7
v -0.4 0.1 0.7
v -0.4 0.1 0.6
v -0.4 0.1 -0.6
v -0.4 0.1 -0.7
v -0.3 0 0.8
v -0.3 0 0.7
v -0.3 0 -0.7
v -0.3 0 -0.8
v -0.3 0.1 0.8
v -0.3 0.1 0.7
v -0.3 0.1 -0.7
v -0.3 0.1 -0.8
v 0.8 0 0.8
v 0.8 0 0.3
v 0.8 0 -0.3
v 0.8 0 -0.8
v 0.8 0.1 0.8
v 0.8 0.1 0.3
v 0.8 0.1 -0.3
v 0.8 0.1 -0.8
v -0.8 0 0.8
v -0.8 0.1 0.8
v -0.3 0 0.8
v -0.3 0.1 0.8
v 0.3 0 0.8
v 0.3 0.1 0.8
v 0.8 0 0.8
v 0.8 0.1 0.8
v -0.8 0 -0.3
v -0.8 0.1 -0.3
v -0.7 0 -0.3
v -0.7 0.1 -0.3
v 0.7 0 -0.3
v 0.7 0.1 -0.3
v 0.8 0 -0.3
v 0.8 0.1 -0.3
v -0.7 0 -0.4
v -0.7 0.1 -0.4
v -0.6 0 -0.4
v -0.6 0.1 -0.4
v 0.6 0 -0.4
v 0.6 0.1 -0.4
v 0.7 0 -0.4
v 0.7 0.1 -0.4
v -0.6 0 -0.6
v -0.6 0.1 -0.6
v -0.4 0 -0.6
v -0.4 0.1 -0.6
v 0.4 0 -0.6
v 0.4 0.1 -0.6
v 0.6 0 -0.6
v 0.6 0.1 -0.6
v -0.4 0 -0.7
v -0.4 0.1 -0.7
v -0.3 0 -0.7
v -0.3 0.1 -0.7
v 0.3 0 -0.7
v 0.3 0.1 -0.7
v 0.4 0 -0.7
v 0.4 0.1 -0.7
v -0.4 0 0.7
v -0.4 0.1 0.7
v -0.3 0 0.7
v -0.3 0.1 0.7
v 0.3 0 0.7
v 0.3 0.1 0.7
v 0.4 0 0.7
v 0.4 0.1 0.7
v -0.6 0 0.6
v -0.6 0.1 0.6
v -0.4 0 0.6
v -0.4 0.1 0.6
v 0.4 0 0.6
v 0.4 0.1 0.6
v 0.6 0 0.6
v 0.6 0.1 0.6
v -0.7 0 0.4
v -0.7 0.1 0.4
v -0.6 0 0.4
v -0.6 0.1 0.4
v 0.6 0 0.4
v 0.6 0.1 0.4
v 0.7 0 0.4
v 0.7 0.1 0.4
v -0.8 0 0.3
v -0.8 0.1 0.3
v -0.7 0 0.3
v -0.7 0.1 0.3
v 0.7 0 0.3
v 0.7 0.1 0.3
v 0.8 0 0.3
v 0.8 0.1 0.3
v -0.8 0 -0.8
v -0.8 0.1 -0.8
v -0.3 0 -0.8
v -0.3 0.1 -0.8
v 0.3 0 -0.8
v 0.3 0.1 -0.8
v 0.8 0 -0.8
v 0.8 0.1 -0.8
v -0.8 0 0.8
v -0.3 0 0.8
v 0.3 0 0.8
v 0.8 0 0.8
v -0.7 0 0.7
v -0.4 0 0.7
v -0.3 0 0.7
v 0.3 0 0.7
v 0.4 0 0.7
v 0.7 0 0.7
v -0.6 0 0.6
v -0.4 0 0.6
v 0.4 0 0.6
v 0.6 0 0.6
v -0.7 0 0.4
v -0.6 0 0.4
v 0.6 0 0.4
v 0.7 0 0.4
v -0.8 0 0.3
v -0.7 0 0.3
v 0.7 0 0.3
v 0.8 0 0.3
v -0.8 0 -0.3
v -0.7 0 -0.3
v 0.7 0 -0.3
v 0.8 0 -0.3
v -0.7 0 -0.4
v -0.6 0 -0.4
v 0.6 0 -0.4
v 0.7 0 -0.4
v -0.6 0 -0.6
v -0.4 0 -0.6
v 0.4 0 -0.6
v 0.6 0 -0.6
v -0.7 0 -0.7
v -0.4 0 -0.7
v -0.3 0 -0.7
v 0.3 0 -0.7
v 0.4 0 -0.7
v 0.7 0 -0.7
v -0.8 0 -0.8
v -0.3 0 -0.8
v 0.3 0 -0.8
v 0.8 0 -0.8
v -0.8 0.1 0.8
v -0.3 0.1 0.8
v 0.3 0.1 0.8
v 0.8 0.1 0.8
v -0.7 0.1 0.7
v -0.4 0.1 0.7
v -0.3 0.1 0.7
v 0.3 0.1 0.7
v 0.4 0.1 0.7
v 0.7 0.1 0.7
v -0.6 0.1 0.6
v -0.4 0.1 0.6
v 0.4 0.1 0.6
v 0.6 0.1 0.6
v -0.7 0.1 0.4
v -0.6 0.1 0.4
v 0.6 0.1 0.4
v 0.7 0.1 0.4
v -0.8 0.1 0.3
v -0.7 0.1 0.3
v 0.7 0.1 0.3
v 0.8 0.1 0.3
v -0.8 0.1 -0.3
v -0.7 0.1 -0.3
v 0.7 0.1 -0.3
v 0.8 0.1 -0.3
v -0.7 0.1 -0.4
v -0.6 0.1 -0.4
v 0.6 0.1 -0.4
v 0.7 0.1 -0.4
v -0.6 0.1 -0.6
v -0.4 0.1 -0.6
v 0.4 0.1 -0.6
v 0.6 0.1 -0.6
v -0.7 0.1 -0.7
v -0.4 0.1 -0.7
v -0.3 0.1 -0.7
v 0.3 0.1 -0.7
v 0.4 0.1 -0.7
v 0.7 0.1 -0.7
v -0.8 0.1 -0.8
v -0.3 0.1 -0.8
v 0.3 0.1 -0.8
v 0.8 0.1 -0.8

# faces
f 5/1/1 2/1/1 1/1/1
f 6/1/1 2/1/1 5/1/1
f 7/1/1 4/1/1 3/1/1
f 8/1/1 4/1/1 7/1/1
f 13/1/1 10/1/1 9/1/1
f 14/1/1 10/1/1 13/1/1
f 15/1/1 12/1/1 11/1/1
f 16/1/1 12/1/1 15/1/1
f 21/2/1 18/2/1 17/2/1
f 22/2/1 18/2/1 21/2/1
f 23/2/1 20/2/1 19/2/1
f 24/2/1 20/2/1 23/2/1
f 29/2/1 26/2/1 25/2/1
f 30/2/1 26/2/1 29/2/1
f 31/2/1 28/2/1 27/2/1
f 32/2/1 28/2/1 31/2/1
f 37/1/1 34/1/1 33/1/1
f 38/1/1 34/1/1 37/1/1
f 39/1/1 36/1/1 35/1/1
f 40/1/1 36/1/1 39/1/1
f 41/1/2 42/1/2 45/1/2
f 45/1/2 42/1/2 46/1/2
f 43/1/2 44/1/2 47/1/2
f 47/1/2 44/1/2 48/1/2
f 49/2/2 50/2/2 53/2/2
f 53/2/2 50/2/2 54/2/2
f 51/2/2 52/2/2 55/2/2
f 55/2/2 52/2/2 56/2/2
f 57/2/2 58/2/2 61/2/2
f 61/2/2 58/2/2 62/2/2
f 59/2/2 60/2/2 63/2/2
f 63/2/2 60/2/2 64/2/2
f 65/1/2 66/1/2 69/1/2
f 69/1/2 66/1/2 70/1/2
f 67/1/2 68/1/2 71/1/2
f 71/1/2 68/1/2 72/1/2
f 73/1/2 74/1/2 77/1/2
f 77/1/2 74/1/2 78/1/2
f 75/1/2 76/1/2 79/1/2
f 79/1/2 76/1/2 80/1/2
f 83/1/3 82/1/3 81/1/3
f 84/1/3 82/1/3 83/1/3
f 87/1/3 86/1/3 85/1/3
f 88/1/3 86/1/3 87/1/3
f 91/1/3 90/1/3 89/1/3
f 92/1/3 90/1/3 91/1/3
f 95/1/3 94/1/3 93/1/3
f 96/1/3 94/1/3 95/1/3
f 99/2/3 98/2/3 97/2/3
f 100/2/3 98/2/3 99/2/3
f 103/2/3 102/2/3 101/2/3
f 104/2/3 102/2/3 103/2/3
f 107/2/3 106/2/3 105/2/3
f 108/2/3 106/2/3 107/2/3
f 111/2/3 110/2/3 109/2/3
f 112/2/3 110/2/3 111/2/3
f 115/1/3 114/1/3 113/1/3
f 116/1/3 114/1/3 115/1/3
f 119/1/3 118/1/3 117/1/3
f 120/1/3 118/1/3 119/1/3
f 121/1/4 122/1/4 123/1/4
f 123/1/4 122/1/4 124/1/4
f 125/1/4 126/1/4 127/1/4
f 127/1/4 126/1/4 128/1/4
f 129/2/4 130/2/4 131/2/4
f 131/2/4 130/2/4 132/2/4
f 133/2/4 134/2/4 135/2/4
f 135/2/4 134/2/4 136/2/4
f 137/2/4 138/2/4 139/2/4
f 139/2/4 138/2/4 140/2/4
f 141/2/4 142/2/4 143/2/4
f 143/2/4 142/2/4 144/2/4
f 145/1/4 146/1/4 147/1/4
f 147/1/4 146/1/4 148/1/4
f 149/1/4 150/1/4 151/1/4
f 151/1/4 150/1/4 152/1/4
f 153/1/4 154/1/4 155/1/4
f 155/1/4 154/1/4 156/1/4
f 157/1/4 158/1/4 159/1/4
f 159/1/4 158/1/4 160/1/4
f 165/1/5 162/1/5 161/1/5
f 166/1/5 162/1/5 165/1/5
f 167/1/5 162/1/5 166/1/5
f 168/1/5 164/1/5 163/1/5
f 169/1/5 164/1/5 168/1/5
f 170/1/5 164/1/5 169/1/5
f 171/2/5 166/2/5 165/2/5
f 172/2/5 166/2/5 171/2/5
f 173/2/5 170/2/5 169/2/5
f 174/2/5 170/2/5 173/2/5
f 175/1/5 165/1/5 161/1/5
f 175/2/5 171/2/5 165/2/5
f 176/2/5 171/2/5 175/2/5
f 177/2/5 170/2/5 174/2/5
f 178/1/5 164/1/5 170/1/5
f 178/2/5 170/2/5 177/2/5
f 179/1/5 175/1/5 161/1/5
f 180/1/5 175/1/5 179/1/5
f 181/1/5 164/1/5 178/1/5
f 182/1/5 164/1/5 181/1/5
f 187/1/5 184/1/5 183/1/5
f 190/1/5 186/1/5 185/1/5
f 191/2/5 188/2/5 187/2/5
f 194/2/5 190/2/5 189/2/5
f 195/2/5 192/2/5 191/2/5
f 195/1/5 187/1/5 183/1/5
f 195/2/5 191/2/5 187/2/5
f 196/2/5 192/2/5 195/2/5
f 199/2/5 194/2/5 193/2/5
f 200/2/5 190/2/5 194/2/5
f 200/1/5 186/1/5 190/1/5
f 200/2/5 194/2/5 199/2/5
f 201/1/5 197/1/5 196/1/5
f 201/1/5 195/1/5 183/1/5
f 201/1/5 196/1/5 195/1/5
f 202/1/5 197/1/5 201/1/5
f 203/1/5 199/1/5 198/1/5
f 203/1/5 200/1/5 199/1/5
f 204/1/5 186/1/5 200/1/5
f 204/1/5 200/1/5 203/1/5
f 205/1/6 206/1/6 209/1/6
f 209/1/6 206/1/6 210/1/6
f 210/1/6 206/1/6 211/1/6
f 207/1/6 208/1/6 212/1/6
f 212/1/6 208/1/6 213/1/6
f 213/1/6 208/1/6 214/1/6
f 209/2/6 210/2/6 215/2/6
f 215/2/6 210/2/6 216/2/6
f 213/2/6 214/2/6 217/2/6
f 217/2/6 214/2/6 218/2/6
f 205/1/6 209/1/6 219/1/6
f 209/2/6 215/2/6 219/2/6
f 219/2/6 215/2/6 220/2/6
f 218/2/6 214/2/6 221/2/6
f 214/1/6 208/1/6 222/1/6
f 221/2/6 214/2/6 222/2/6
f 205/1/6 219/1/6 223/1/6
f 223/1/6 219/1/6 224/1/6
f 222/1/6 208/1/6 225/1/6
f 225/1/6 208/1/6 226/1/6
f 227/1/6 228/1/6 231/1/6
f 229/1/6 230/1/6 234/1/6
f 231/2/6 232/2/6 235/2/6
f 233/2/6 234/2/6 238/2/6
f 235/2/6 236/2/6 239/2/6
f 227/1/6 231/1/6 239/1/6
f 231/2/6 235/2/6 239/2/6
f 239/2/6 236/2/6 240/2/6
f 237/2/6 238/2/6 243/2/6
f 238/2/6 234/2/6 244/2/6
f 234/1/6 230/1/6 244/1/6
f 243/2/6 238/2/6 244/2/6
f 240/1/6 241/1/6 245/1/6
f 227/1/6 239/1/6 245/1/6
f 239/1/6 240/1/6 245/1/6
f 245/1/6 241/1/6 246/1/6
f 242/1/6 243/1/6 247/1/6
f 243/1/6 244/1/6 247/1/6
f 244/1/6 230/1/6 248/1/6
f 247/1/6 244/1/6 248/1/6
